<svg width="48" height="48" viewBox="0 0 48 48" fill="none" xmlns="http://www.w3.org/2000/svg">
<path d="M23.999 6C30.336 6 33.931 10.195 34.454 15.26H34.614C38.692 15.26 41.998 18.558 41.998 22.625C41.998 26.693 38.692 29.99 34.614 29.99L32.891 29.991L32.887 30H32.301L30.33 33.38C30.2473 33.5218 30.1374 33.646 30.0067 33.7453C29.876 33.8447 29.727 33.9174 29.5682 33.9592C29.4094 34.0009 29.2439 34.011 29.0813 33.9889C28.9186 33.9667 28.7618 33.9127 28.62 33.83C28.4782 33.7473 28.354 33.6374 28.2547 33.5067C28.1553 33.376 28.0826 33.227 28.0408 33.0682C27.9991 32.9094 27.989 32.7439 28.0111 32.5813C28.0333 32.4186 28.0873 32.2618 28.17 32.12L29.413 29.99L25.154 29.991L25.151 30H24.301L22.33 33.38C22.2473 33.5218 22.1374 33.646 22.0067 33.7453C21.876 33.8447 21.727 33.9174 21.5682 33.9592C21.4094 34.0009 21.2439 34.011 21.0813 33.9889C20.9186 33.9667 20.7618 33.9127 20.62 33.83C20.4782 33.7473 20.354 33.6374 20.2547 33.5067C20.1553 33.376 20.0826 33.227 20.0408 33.0682C19.9991 32.9094 19.989 32.7439 20.0111 32.5813C20.0333 32.4186 20.0873 32.2618 20.17 32.12L21.413 29.99L17.418 29.991L17.415 30H16.302L14.33 33.38C14.2473 33.5218 14.1374 33.646 14.0067 33.7453C13.876 33.8447 13.727 33.9174 13.5682 33.9592C13.4094 34.0009 13.2439 34.011 13.0813 33.9889C12.9186 33.9667 12.7618 33.9127 12.62 33.83C12.4782 33.7473 12.354 33.6374 12.2547 33.5067C12.1553 33.376 12.0826 33.227 12.0408 33.0682C11.9991 32.9094 11.989 32.7439 12.0111 32.5813C12.0333 32.4186 12.0873 32.2618 12.17 32.12L13.413 29.99H13.384C9.306 29.99 6 26.693 6 22.625C6 18.558 9.306 15.26 13.384 15.26H13.544C14.07 10.161 17.662 6 24 6H23.999ZM23.999 8.495C19.738 8.495 16.024 11.943 16.024 16.705C16.024 17.46 15.368 18.053 14.616 18.053H13.196C10.602 18.053 8.499 20.166 8.499 22.773C8.499 25.381 10.602 27.495 13.196 27.495H34.802C37.396 27.495 39.499 25.381 39.499 22.774C39.499 20.166 37.396 18.052 34.802 18.052H33.382C32.63 18.052 31.974 17.46 31.974 16.706C31.974 11.882 28.26 8.496 23.999 8.496V8.495ZM17.629 34.67C17.7709 34.7527 17.895 34.8625 17.9944 34.9933C18.0938 35.124 18.1665 35.273 18.2083 35.4318C18.2501 35.5906 18.2602 35.756 18.238 35.9187C18.2158 36.0814 18.1618 36.2382 18.079 36.38L16.329 39.38C16.2475 39.5241 16.1381 39.6506 16.0073 39.752C15.8765 39.8535 15.7269 39.928 15.567 39.9712C15.4072 40.0144 15.2404 40.0254 15.0763 40.0035C14.9121 39.9817 14.754 39.9275 14.611 39.844C14.468 39.7606 14.343 39.6496 14.2433 39.5174C14.1436 39.3853 14.0711 39.2346 14.0301 39.0742C13.989 38.9138 13.9803 38.7469 14.0043 38.5831C14.0283 38.4193 14.0846 38.2619 14.17 38.12L15.92 35.12C16.0027 34.9781 16.1125 34.854 16.2433 34.7546C16.374 34.6552 16.523 34.5825 16.6818 34.5407C16.8406 34.4989 17.006 34.4888 17.1687 34.511C17.3314 34.5332 17.4882 34.5872 17.63 34.67H17.629ZM26.079 36.38C26.1644 36.2381 26.2207 36.0807 26.2447 35.9169C26.2687 35.7531 26.26 35.5862 26.2189 35.4258C26.1779 35.2654 26.1054 35.1147 26.0057 34.9826C25.906 34.8504 25.781 34.7394 25.638 34.656C25.495 34.5725 25.3369 34.5183 25.1727 34.4965C25.0086 34.4746 24.8418 34.4856 24.682 34.5288C24.5221 34.572 24.3725 34.6465 24.2417 34.748C24.1109 34.8494 24.0015 34.9759 23.92 35.12L22.17 38.12C22.0873 38.2618 22.0333 38.4186 22.0111 38.5813C21.989 38.7439 21.9991 38.9094 22.0408 39.0682C22.0826 39.227 22.1553 39.376 22.2547 39.5067C22.354 39.6374 22.4782 39.7473 22.62 39.83C22.7618 39.9127 22.9186 39.9667 23.0813 39.9889C23.2439 40.011 23.4094 40.0009 23.5682 39.9592C23.727 39.9174 23.876 39.8447 24.0067 39.7453C24.1374 39.646 24.2473 39.5218 24.33 39.38L26.08 36.38H26.079Z" fill="black"/>
</svg>
